<?xml version="1.0" encoding="utf-8"?>
<!-- Generator: Adobe Illustrator 16.0.0, SVG Export Plug-In . SVG Version: 6.00 Build 0)  -->
<!DOCTYPE svg PUBLIC "-//W3C//DTD SVG 1.1//EN" "http://www.w3.org/Graphics/SVG/1.1/DTD/svg11.dtd">
<svg version="1.1" id="Layer_1" xmlns="http://www.w3.org/2000/svg" xmlns:xlink="http://www.w3.org/1999/xlink" x="0px" y="0px"
	 width="700px" height="179px" viewBox="0 0 700 179" enable-background="new 0 0 700 179" xml:space="preserve">
<g transform="translate(0.000000,179.000000) scale(0.100000,-0.100000)">
	<path fill="#FE5722" d="M800,1652.998c-48.999-17.998-87.998-40-112.002-63.999c-50.996-51.997-61.997-77.998-61.997-147.998
		C625,1380,627.998,1370,660,1325c48.999-67.002,88.999-88.999,171.001-88.999c38.999-1.001,77.998,5,95,13.999
		c35,17.998,83.999,67.998,83.999,87.002c0,6.997,3.999,12.998,7.998,12.998c5,0,14.004,17.998,21.001,41.001
		c30,101.001-42.998,221.001-155,253.999C828.999,1661.001,822.998,1661.001,800,1652.998z M817.998,1592.998
		C820,1578.999,812.002,1568.999,790,1560c-17.002-7.002-41.001-26.001-55-41.001c-45-53.999-85-25-43.999,32.002
		c21.001,30,93.999,71.997,113.999,65C811.001,1615,816.001,1603.999,817.998,1592.998z"/>
	<path fill="#FE5722" d="M1313.999,1498.999c-28.999-11.001-71.997-38.999-96.001-61.997c-80-77.002-108.999-139.004-110-237.002
		c-0.996-153.999,101.001-285,255-325c210-54.004,425,140,395,357.002c-10,75-37.998,130.996-96.997,190.996
		c-43.003,45-58.999,55-133.999,86.001C1482.998,1527.002,1372.002,1522.002,1313.999,1498.999z M1410,1440
		c13.999-27.002,6.001-37.998-43.999-60c-47.002-20-75-42.998-100-82.002c-13.003-20-27.002-27.998-47.002-27.998
		c-26.001,0-28.999,3.999-28.999,30c0,57.998,118.999,158.999,187.002,160C1388.999,1460,1403.999,1451.001,1410,1440z"/>
	<path fill="#231F20" stroke="#000000" stroke-miterlimit="10" d="M2137.002,1142.998c-12.002-10.996-8.003-77.998,5-90.996
		c8.999-9.004,70-12.002,213.999-12.002C2575,1040,2590,1042.998,2590,1095c0,56.001,6.001,55-228.999,55
		C2241.001,1150,2140,1147.002,2137.002,1142.998z"/>
	<path fill="#231F20" stroke="#000000" stroke-miterlimit="10" d="M2770,1101.001v-48.999l147.998-4.004
		C3043.999,1045,3070,1042.002,3100,1023.999c112.998-66.001,112.998-271.997,0-338.003c-30-17.998-56.001-20.996-182.002-23.994
		L2770,657.998v-48.994c0-44.004,2.002-49.004,26.001-55c15-4.004,82.998-4.004,152.998-2.002
		c146.001,5.996,205.005,25,263.999,85.996C3270.996,697.002,3295,760.996,3295,855c0,128.999-55,221.001-160,271.001
		c-45.996,21.997-62.998,23.999-207.002,23.999H2770V1101.001z"/>
	<path fill="#231F20" stroke="#000000" stroke-miterlimit="10" d="M3474.004,1136.001c-3.008-8.999-4.004-100-2.002-203.999
		c3.994-169.004,5.996-192.002,27.002-240C3532.998,615.996,3617.002,550,3680,550c19.004,0,20.996,5,17.998,52.002
		c-2.998,45-7.002,52.998-32.002,67.998c-15.996,7.998-38.994,27.998-50,44.004c-18.994,25-20.996,45-25.996,228.994L3585,1145
		l-52.998,2.998C3492.002,1150,3477.998,1147.002,3474.004,1136.001z"/>
	<path fill="#231F20" stroke="#000000" stroke-miterlimit="10" d="M3885,1137.998c-2.002-6.997-5.996-98.999-7.002-205
		c-2.998-175.996-5-193.994-23.994-220c-11.006-15-34.004-33.994-50-42.002C3767.002,652.998,3760,642.002,3760,605
		c0-52.002,10.996-60,64.004-45c61.992,17.002,117.998,67.998,145.996,132.002c20,47.002,24.004,73.994,27.998,230
		c2.002,96.997,2.002,187.998-2.002,201.997C3990,1147.998,3985,1150,3939.004,1150C3907.998,1150,3887.998,1145,3885,1137.998z"/>
	<path fill="#231F20" stroke="#000000" stroke-miterlimit="10" d="M4207.001,1143.999c-12.002-11.997-7.998-78.999,5-91.997
		c8.994-9.004,70-12.002,213.994-12.002c225,0,228.008,1.001,222.002,67.002L4645,1145l-215.996,2.998
		C4310.996,1148.999,4210.996,1147.002,4207.001,1143.999z"/>
	<path fill="#231F20" stroke="#000000" stroke-miterlimit="10" d="M4750,1132.998c0.996-10,27.002-53.999,59.004-97.998l56.992-80
		l52.002-2.998c76.006-4.004,77.002,11.997,7.002,113.999L4867.001,1150h-59.004C4759.003,1150,4750,1147.002,4750,1132.998z"/>
	<path fill="#231F20" stroke="#000000" stroke-miterlimit="10" d="M5095,982.998l-115.996-167.002l2.998-130L4985,555l42.998-2.998
		c67.998-5,72.998,3.994,71.006,130l-1.006,108.994l50,72.002c145,206.001,182.998,267.002,177.002,276.001
		c-2.998,6.001-30,11.001-60,11.001h-54.004L5095,982.998z"/>
	<path fill="#231F20" stroke="#000000" stroke-miterlimit="10" d="M5482.001,1127.998c3.994-20.996,342.002-492.002,390.996-545.996
		c17.998-19.004,30-22.002,72.002-20l50,2.998v290v290l-52.002,2.998l-52.998,3.003v-195c0-108.003-4.004-196.001-7.998-196.001
		c-4.004,0-72.002,87.998-151.006,195l-141.992,195h-56.006C5480.996,1150,5477.998,1148.999,5482.001,1127.998z"/>
	<path fill="#231F20" stroke="#000000" stroke-miterlimit="10" d="M6214.003,1137.002c-3.008-8.003-4.004-30-2.002-49.004L6215,1055
		l150-5c84.004-2.998,159.004-10,170-17.002c117.002-66.997,127.998-268.994,17.998-342.998c-33.994-22.998-47.002-25-187.002-30
		L6215,655l-2.998-37.998c-5-62.002,5-67.002,137.002-67.002c188.994,0,276.992,32.002,338.994,122.002
		c39.004,57.998,55,108.994,55,182.998c0,117.998-55.996,220-147.002,267.998c-36.992,19.004-58.994,22.002-207.998,25
		C6245.996,1151.001,6219.003,1148.999,6214.003,1137.002z"/>
	<path fill="#FE5722" d="M536.001,1123.999c-60-16.001-163.003-65-196.001-93.999c-13.999-12.002-30-25-35-27.998
		c-22.998-15-93.999-110-120-159.004c-13.999-28.994-32.998-75.996-41.001-105C127.998,675,126.001,552.002,141.001,495
		c15-60,51.001-147.998,66.001-162.998C213.999,325,220,315,220,310.996c0-13.994,96.001-107.998,140-136.992
		C466.001,104.004,541.001,80,657.002,80C761.001,80,780,85,920,147.998c18.999,9.004,67.998,47.998,107.998,87.998
		c148.003,147.002,195,338.008,132.002,537.002c-11.001,37.998-30,77.002-41.001,87.998c-10,10-16.001,19.004-12.998,19.004
		c16.997,0-83.003,112.998-142.002,160C946.001,1053.999,870,1092.998,825,1110C747.002,1141.001,626.001,1147.002,536.001,1123.999
		z M611.001,1013.999c12.998-16.001,21.001-83.999,10-81.997c-3.003,0.996-15-2.002-26.001-7.002
		c-11.001-3.999-36.001-13.999-55-22.002C482.998,880,430,839.004,397.002,790.996c-18.003-25-34.004-47.998-37.002-51.992
		c-2.998-4.004-17.002-10-32.002-14.004C297.002,717.002,260,747.002,260,780c0,42.002,82.002,140,160,191.001
		C508.999,1030,583.999,1046.001,611.001,1013.999z"/>
	<path fill="#231F20" stroke="#000000" stroke-miterlimit="10" d="M2133.999,896.001c-2.998-8.003-3.999-31.001-1.997-51.997
		L2135,805h205h205v50v50l-202.998,2.998C2175,910,2138.999,907.998,2133.999,896.001z"/>
	<path fill="#231F20" stroke="#000000" stroke-miterlimit="10" d="M4207.001,892.998C4202.998,890,4200,815.996,4200,730
		c0-167.998,2.998-180,50.996-180c58.008,0,59.004,2.998,59.004,125.996v113.008l147.998,2.998L4605,795l2.998,52.998l2.998,52.002
		h-198.994C4302.998,900,4210,897.002,4207.001,892.998z"/>
	<path fill="#FE5722" d="M1445,765c-5-2.002-22.998-5.996-37.998-10c-41.001-9.004-103.003-74.004-116.001-122.998
		c-23.003-85,16.997-165,103.999-207.002c96.001-45,207.998,9.004,240,117.002c12.998,45,12.998,53.994-5,98.994
		c-18.999,52.002-47.998,85-91.001,106.006C1512.998,759.004,1461.001,769.004,1445,765z M1448.999,727.002
		c12.002-15-2.998-37.002-23.999-37.002c-7.002,0-26.001-15.996-42.998-35c-30-32.998-62.002-39.004-62.002-10.996
		c0,17.998,42.998,63.994,75,80.996C1432.002,742.998,1435,742.998,1448.999,727.002z"/>
	<path fill="#231F20" stroke="#000000" stroke-miterlimit="10" d="M5482.998,742.998c-5-10-7.998-25-7.002-32.998
		c1.006-7.998,2.002-45.996,3.008-82.998l0.996-67.998l52.998,2.998L5585,565l2.998,82.998c2.002,52.998-0.996,89.004-8.994,97.998
		C5562.001,767.002,5492.998,764.004,5482.998,742.998z"/>
	<path fill="#231F20" stroke="#000000" stroke-miterlimit="10" d="M2137.002,652.998c-12.002-10.996-8.003-77.998,5-90.996
		c8.999-9.004,70-12.002,213.999-12.002C2575,550,2590,552.998,2590,605c0,55.996,6.001,55-228.999,55
		C2241.001,660,2140,657.002,2137.002,652.998z"/>
</g>
</svg>
